# xmcd
#
# Track frame offsets: 
#        150
#        16245
#        33259
#        52525
#        70488
#        89526
#        106590
#        123097
#        137790
#        155782
#        174339
#        192576
#
# Disc length: 2808 seconds
#
# Revision: 4
# Processed by: cddbd v1.5.2PL0 Copyright (c) Steve Scherf et al.
# Submitted via: ExactAudioCopy v1.0b3
#
DISCID=960af60c
DTITLE=Arthur Adams - Stomp The Floor
DYEAR=2009
DGENRE=Blues
TTITLE0=Stomp The Floor
TTITLE1=You Can't Win For Losing
TTITLE2=Don't Let The Door Hit You
TTITLE3=I Know What You Mean
TTITLE4=So Sweet
TTITLE5=You Got That Right
TTITLE6=Callin' Heaven
TTITLE7=Nature Of The Beast
TTITLE8=Thrive On Your Vibe
TTITLE9=You Are Invited
TTITLE10=Around The Sun
TTITLE11=Blue Roots
EXTD=
EXTT0=
EXTT1=
EXTT2=
EXTT3=
EXTT4=
EXTT5=
EXTT6=
EXTT7=
EXTT8=
EXTT9=
EXTT10=
EXTT11=
PLAYORDER=
